<svg class="svg-icon" style="width: 1em; height: 1em;vertical-align: middle;fill: currentColor;overflow: hidden;" viewBox="0 0 1024 1024" version="1.1" xmlns="http://www.w3.org/2000/svg"><path d="M512 256h85.333333a21.333333 21.333333 0 0 0 0-42.666667h-85.333333a21.333333 21.333333 0 0 0 0 42.666667zM789.333333 298.666667H554.666667a21.333333 21.333333 0 0 0 0 42.666666h234.666666a21.333333 21.333333 0 0 0 0-42.666666zM490.666667 426.666667h277.333333a21.333333 21.333333 0 0 0 0-42.666667H490.666667a21.333333 21.333333 0 0 0 0 42.666667zM789.333333 469.333333H490.666667a21.333333 21.333333 0 0 0 0 42.666667h298.666666a21.333333 21.333333 0 0 0 0-42.666667zM746.666667 597.333333a21.333333 21.333333 0 0 0 0-42.666666H490.666667a21.333333 21.333333 0 0 0 0 42.666666h256zM768 640H469.333333a21.333333 21.333333 0 0 0 0 42.666667h298.666667a21.333333 21.333333 0 0 0 0-42.666667z" fill="#231F20" /><path d="M1024 192c0-44.885333-6.250667-149.333333-64-149.333333H427.754667C377.408 42.666667 363.157333 98.261333 362.666667 128.277333c0.042667 3.690667 4.010667 364.16-38.954667 597.056H128c-18.56 0-33.770667 5.845333-45.248 17.386667-24.810667 24.981333-24.512 69.205333-24.170667 116.010667 0.298667 41.877333 0.64 89.365333-19.648 109.781333C30.378667 977.152 17.642667 981.333333 0 981.333333v42.666667h532.288c29.184 0 52.48-8.554667 69.184-25.386667 15.573333-15.68 23.509333-36.8 27.690667-59.946666h159.125333c18.453333 0 35.370667-7.765333 50.282667-23.104 92.906667-95.466667 101.354667-514.816 100.330666-702.229334H1024V192zM571.221333 968.512c-8.554667 8.64-21.290667 12.821333-38.933333 12.821333H82.368c19.52-33.514667 19.178667-80.576 18.88-122.88-0.234667-34.346667-0.512-73.258667 11.797333-85.653333 2.048-2.069333 5.824-4.8 14.954667-4.8H599.701333c-9.152 24.810667-9.066667 57.045333-8.832 90.730667 0.298667 41.877333 0.64 89.365333-19.648 109.781333z m62.314667-110.058667c-0.234667-34.346667-0.512-73.258667 11.797333-85.653333 2.048-2.069333 5.824-4.8 14.954667-4.8 6.762667 0 15.68 0.917333 19.946667 5.184 7.232 7.317333 7.018667 27.925333 6.805333 47.872-0.256 24.810667-0.341333 52.138667 11.818667 74.944h-65.557334c0.384-12.608 0.32-25.28 0.234667-37.546667z m174.464 27.349334c-9.92 10.197333-17.301333 10.197333-19.712 10.197333-22.570667 0-38.314667-4.352-46.805333-12.906667-12.330667-12.458667-12.074667-37.44-11.818667-61.589333 0.32-28.672 0.618667-58.346667-19.136-78.314667-11.733333-11.84-28.629333-17.856-50.24-17.856H367.04C409.301333 488.768 405.525333 142.890667 405.333333 128.426667 405.333333 128 407.274667 85.333333 427.754667 85.333333h475.84a127.04 127.04 0 0 0-8.64 43.242667c4.885333 180.757333-1.237333 669.162667-86.954667 757.226667zM938.474667 170.666667c-0.298667-20.010667-0.64-34.602667-0.853334-42.24 0.021333-0.426667 1.92-42.517333 21.632-43.093334h0.405334c8.490667 4.224 18.453333 41.024 21.056 85.333334h-42.24z" fill="#231F20" /></svg>